<?xml version="1.0"?>
<svg xmlns="http://www.w3.org/2000/svg" viewBox="0 0 512 512" width="512" height="512"><g id="outline"><path d="M305.283,259.463a51.393,51.393,0,0,0-98.566,0A51.395,51.395,0,1,0,256,346.665a50.918,50.918,0,0,0,34.712,13.472,51.392,51.392,0,0,0,14.571-100.674Zm-14.571,84.674a35.13,35.13,0,0,1-28.316-14.16,8,8,0,0,0-12.792,0,35.39,35.39,0,1,1-34.8-56.017,8,8,0,0,0,6.41-6.41,35.385,35.385,0,0,1,69.574,0,8,8,0,0,0,6.41,6.41,35.388,35.388,0,0,1-6.485,70.177Z"/><path d="M196.137,203.355a34.629,34.629,0,0,0,11.518,2.023,30.862,30.862,0,0,0,15.529-4.141c8.078-4.663,13.532-12.606,15.358-22.365a42.046,42.046,0,0,0-26.683-46.217c-9.364-3.3-18.971-2.546-27.047,2.117s-13.532,12.607-15.358,22.366a42.046,42.046,0,0,0,26.683,46.217ZM185.18,160.081a16.284,16.284,0,0,1,7.632-11.452,15.014,15.014,0,0,1,7.567-1.979,18.592,18.592,0,0,1,6.166,1.1,26.076,26.076,0,0,1,16.271,28.182,15.518,15.518,0,0,1-21.365,12.335,26.078,26.078,0,0,1-16.271-28.183Z"/><path d="M177.7,261.068c12.241-14.224,9.152-37.026-6.886-50.828s-39.045-13.456-51.287.767c-6.083,7.07-8.608,16.368-7.109,26.183a41.972,41.972,0,0,0,40.51,34.775C162.413,271.965,171.454,268.32,177.7,261.068Zm-12.128-10.437c-6.485,7.539-19.37,7.122-28.722-.924a24.9,24.9,0,0,1-8.615-14.934,15.544,15.544,0,0,1,16.04-18.722,25.084,25.084,0,0,1,16.1,6.316C169.724,230.415,172.055,243.094,165.568,250.631Z"/><path d="M288.815,200.487a30.777,30.777,0,0,0,15.486,4.1c12.72,0,25.733-7.423,33.176-20.315,10.579-18.324,5.964-40.866-10.289-50.249-8.077-4.665-17.683-5.418-27.047-2.118a40.9,40.9,0,0,0-21.614,18.333C267.948,168.562,272.563,191.1,288.815,200.487Zm3.569-42.25A24.9,24.9,0,0,1,305.455,147a18.57,18.57,0,0,1,6.166-1.1,15.011,15.011,0,0,1,7.567,1.979c8.612,4.973,10.6,17.71,4.432,28.393s-18.193,15.33-26.805,10.36S286.216,168.921,292.384,158.237Z"/><path d="M399.586,234.4c1.5-9.815-1.026-19.113-7.109-26.183-6.069-7.052-14.858-10.932-24.756-10.932h-.075A42.049,42.049,0,0,0,327.2,232.1c-1.5,9.815,1.026,19.113,7.109,26.183,6.069,7.052,14.858,10.933,24.756,10.932h.075a42.051,42.051,0,0,0,40.451-34.81Zm-15.817-2.417A26.074,26.074,0,0,1,359.1,253.213h-.042a15.514,15.514,0,0,1-16.05-18.7,26.074,26.074,0,0,1,24.665-21.227h.042a15.514,15.514,0,0,1,16.05,18.7Z"/><path d="M471.306,373.185a42.639,42.639,0,0,0-16.239-14.4,224,224,0,1,0-95.835,96.033l35.761,23.84a8,8,0,0,0,8.875,0l53.984-35.99a49.961,49.961,0,0,0,19.6-25.654,49.418,49.418,0,0,0-5.8-43.32ZM256,464C141.309,464,48,370.691,48,256S141.309,48,256,48s208,93.309,208,208a208.093,208.093,0,0,1-24.684,98.332c-1.174-.1-2.353-.164-3.544-.164a42.6,42.6,0,0,0-16.865,3.457A191.908,191.908,0,0,0,448,256c0-105.869-86.131-192-192-192S64,150.131,64,256s86.131,192,192,192a190.392,190.392,0,0,0,74.35-14.943,49.673,49.673,0,0,0,10.658,9.609l2.86,1.907A208.591,208.591,0,0,1,256,464Zm71.557-90.818-.344.513a49.421,49.421,0,0,0-5.8,43.318c.237.712.494,1.416.764,2.115A174.579,174.579,0,0,1,256,432c-97.047,0-176-78.953-176-176S158.953,80,256,80s176,78.953,176,176a175.858,175.858,0,0,1-38.964,110.438,42.7,42.7,0,0,0-65.479,6.744Zm134.712,38.771a33.9,33.9,0,0,1-13.291,17.4L399.43,462.385l-49.548-33.031a33.809,33.809,0,0,1-9.014-8.918,7.905,7.905,0,0,0-1.884-3.029,33.554,33.554,0,0,1,1.54-34.834l.344-.513a26.705,26.705,0,0,1,41.1-4.07l11.8,11.8a8,8,0,0,0,11.314,0l11.8-11.8a26.658,26.658,0,0,1,25.018-7.1h0A26.64,26.64,0,0,1,458,382.062l.338.508A33.523,33.523,0,0,1,462.269,411.953Z"/></g></svg>
