<svg height="512" viewBox="0 0 512 512" width="512" xmlns="http://www.w3.org/2000/svg"><g id="flat"><path d="m472 488-432 .92v-336l216-128.92 216 128z" fill="#0292c9"/><path d="m400 489 5.766-20.219a306.312 306.312 0 0 0 10.82-123.8 306.31 306.31 0 0 0 -49.346-134.121 228.588 228.588 0 0 0 -57.333-59.212 125.419 125.419 0 0 0 -48.307-20.928 52.241 52.241 0 0 0 -26.76 1.666l-19 6.334a36 36 0 0 0 -22.04 20.78l-9.8 24.5-47.789 23.894a16 16 0 0 0 -6.157 23.187l21.946 32.919 47.247-4.3v229.22z" fill="#fbb540"/><path d="m344 212.22a32 32 0 0 1 -64 0v-16.72a70.437 70.437 0 0 0 -10.03-36.22l-8.15-13.58a91.893 91.893 0 0 0 -12.13-15.96c.56-.02 1.11-.03 1.67-.03a52.054 52.054 0 0 1 10.24 1.01 125.371 125.371 0 0 1 48.31 20.93q5.07 3.63 9.94 7.52a70.317 70.317 0 0 1 24.15 53.05z" fill="#fbb540"/><path d="m143.7 234.86-7.7 5.14-5.95-8.92a16.01 16.01 0 0 1 6.16-23.19l15.74-7.87.05-.02 1.81 5.42a25.649 25.649 0 0 1 -10.11 29.44z" fill="#fbb540"/><path d="m369.041 317.359-49.041 49.041-49.041-49.041a23.758 23.758 0 0 1 -6.959-16.8 23.759 23.759 0 0 1 23.759-23.759 23.758 23.758 0 0 1 16.8 6.959l15.441 15.441 15.441-15.441a23.758 23.758 0 0 1 16.8-6.959 23.759 23.759 0 0 1 23.759 23.759 23.758 23.758 0 0 1 -6.959 16.8z" fill="#e82f3e"/><g fill="#d18d28"><circle cx="221" cy="189" r="11"/><path d="m199.247 259.705 35.584-3.235a9.316 9.316 0 0 0 7.49-5.113 7.515 7.515 0 0 1 12.9-.913 7.514 7.514 0 0 1 .235 8.186 22.68 22.68 0 0 1 -16.776 10.725l-38.68 4.445z"/><path d="m344 212.22a32 32 0 0 1 -64 0v-16.72a70.437 70.437 0 0 0 -10.03-36.22l-8.15-13.58a91.893 91.893 0 0 0 -12.13-15.96c.56-.02 1.11-.03 1.67-.03a52.054 52.054 0 0 1 10.24 1.01 125.371 125.371 0 0 1 48.31 20.93l4.61 3.3q2.775 1.98 5.33 4.22a70.317 70.317 0 0 1 24.15 53.05z"/><path d="m143.7 234.86-7.7 5.14-5.95-8.92a16.01 16.01 0 0 1 6.16-23.19l15.74-7.87.05-.02 1.81 5.42a25.649 25.649 0 0 1 -10.11 29.44z"/></g><path d="m272 416 2.155.616a74.241 74.241 0 0 1 53.845 71.384v1h-200l-4.839-16.726a200 200 0 0 1 22.424-166.193l6.415-10.081 1.851-3.7a51.192 51.192 0 0 1 45.786-28.3h.363v32l27.877 13.939a46 46 0 0 1 24.535 32.122l3.588 17.939.811.811a24 24 0 0 1 1.77 31.963l-2.581 3.226z" fill="#fbfdff"/><path d="m218.516 424a52.355 52.355 0 0 1 -37.266-15.436l-2.907-2.907a8 8 0 0 1 11.314-11.314l2.907 2.907a36.7 36.7 0 0 0 54.61-3.024l2.579-3.226a8 8 0 1 1 12.494 10l-2.58 3.224a52.44 52.44 0 0 1 -41.151 19.776z" fill="#cbcbcb"/><circle cx="216" cy="352" fill="#cbcbcb" r="11"/></g></svg>